<svg width="1584" height="396" viewBox="0 0 1584 396" fill="none" xmlns="http://www.w3.org/2000/svg">
<g clip-path="url(#clip0_1016_372)">
<path d="M1584 0H0V396H1584V0Z" fill="#121214"/>
<circle cx="1582.5" cy="197.5" r="709.5" fill="#161618"/>
<circle cx="1582.5" cy="197.5" r="509.072" fill="#18181B"/>
<circle cx="1582.5" cy="197.5" r="220.219" fill="#1B1B1E"/>
<path d="M905.837 255.539C904.39 255.539 903.197 256.691 903.197 258.142V263.646V269.15H905.837V263.646V258.142H908.986H912.134V255.539H908.986H905.837Z" fill="#E1E1E6"/>
<path d="M927.875 262.32V258.117C927.875 256.691 926.707 255.515 925.234 255.515H920.969H916.703C915.257 255.515 914.063 256.666 914.063 258.117V262.32V266.524C914.063 267.95 915.231 269.126 916.703 269.126H920.969H925.234C926.682 269.126 927.875 267.975 927.875 266.524V262.32ZM925.234 262.32V266.524H920.969H916.703V262.32V258.117H920.969H925.234V262.32Z" fill="#E1E1E6"/>
<path d="M933.156 255.539C931.708 255.539 930.515 256.691 930.515 258.142V262.345V266.548C930.515 267.974 931.683 269.15 933.156 269.15L942.448 269.025V266.548H933.156V262.345V258.142H942.448V255.665L933.156 255.539Z" fill="#E1E1E6"/>
<path d="M957.582 255.539H954.002L948.772 261.019H947.731V255.539H945.091V262.32V269.126H947.731V263.621H949.052H949.254L954.687 269.126H958.318L951.336 262.02L957.582 255.539Z" fill="#E1E1E6"/>
<path d="M961.515 266.524V263.622L972.686 263.496V261.019V258.117C972.686 256.691 971.517 255.515 970.045 255.515H965.78H961.515C960.068 255.515 958.875 256.666 958.875 258.117V262.32V266.524C958.875 267.95 960.042 269.126 961.515 269.126L972.686 269.001V266.524H961.515ZM961.515 258.117H965.78H970.045V261.019H967.1H961.515V258.117Z" fill="#E1E1E6"/>
<path d="M979.312 251.562H978.297L976.672 253.538V255.515H974.666V258.117L976.672 258.092V266.524C976.672 267.949 977.84 269.126 979.312 269.126L983.578 269V266.524H979.312V258.067L983.959 257.992V255.515H979.312V251.562Z" fill="#E1E1E6"/>
<path d="M997.872 263.622C997.872 262.195 996.704 261.019 995.231 261.019H991.905H988.579V258.117H997.872V255.64L988.579 255.515C987.132 255.515 985.939 256.666 985.939 258.117V261.019C985.939 262.445 987.107 263.622 988.579 263.622H991.905H995.231V266.524H985.939V269.001L995.231 269.126C996.678 269.126 997.872 267.975 997.872 266.524V263.622Z" fill="#E1E1E6"/>
<path d="M1011.66 255.539H1007.39H1003.13C1001.68 255.539 1000.49 256.691 1000.49 258.142V262.345V266.548C1000.49 267.974 1001.65 269.15 1003.13 269.15L1014.3 269.025V266.548H1003.13V263.646L1014.3 263.521V261.044V258.142C1014.3 256.691 1013.13 255.539 1011.66 255.539ZM1011.66 261.019H1003.13V258.117H1007.39H1011.66V261.019Z" fill="#E1E1E6"/>
<path d="M1028.11 255.539L1016.94 255.665V258.142H1028.11V261.044L1016.94 261.169V263.646V266.548C1016.94 267.974 1018.11 269.15 1019.58 269.15H1023.84H1028.11C1029.56 269.15 1030.75 268 1030.75 266.548V262.345V258.142C1030.72 256.691 1029.56 255.539 1028.11 255.539ZM1028.11 266.523H1023.84H1019.58V263.621H1028.11V266.523Z" fill="#E1E1E6"/>
<path d="M1037.35 258.067L1042 257.992V255.515H1037.35V251.537H1036.34L1034.71 253.513V255.49H1032.71V258.092L1034.71 258.067V266.499C1034.71 267.925 1035.88 269.101 1037.35 269.101L1041.62 268.975V266.499H1037.35V258.067Z" fill="#E1E1E6"/>
<path d="M896.216 246.632L891.925 246.007C891.798 245.982 891.671 246.032 891.62 246.082L889.793 248.434C889.666 248.584 889.64 248.784 889.691 248.959C889.742 249.134 889.589 249.284 889.412 249.26L887.914 248.934C887.685 248.884 887.431 248.959 887.279 249.159L881.338 256.665C881.236 256.815 881.033 256.866 880.856 256.79L878.596 255.79C878.393 255.689 878.165 255.714 877.987 255.839L876.844 256.615C876.667 256.74 876.413 256.765 876.209 256.665L875.651 256.39C875.296 256.215 874.864 256.415 874.762 256.79L874.356 258.567C874.255 258.992 874.433 259.417 874.813 259.642L875.677 260.168L878.444 261.845L879.789 262.67C880.17 262.895 880.653 262.845 880.983 262.57L883.242 260.618C883.42 260.468 883.699 260.419 883.902 260.543L884.588 260.894C884.817 261.019 885.095 260.969 885.273 260.794L886.416 259.743C886.593 259.567 886.873 259.543 887.076 259.642L888.777 260.419C889.031 260.543 889.335 260.468 889.513 260.243L890.3 259.243L896.267 251.711C896.546 251.361 896.368 250.836 895.911 250.736L894.591 250.435C894.312 250.385 894.185 250.035 894.388 249.835L896.445 247.308C896.647 247.008 896.521 246.682 896.216 246.632Z" fill="#8257E6"/>
<path d="M876.539 261.794C876.412 261.719 876.285 261.844 876.336 261.969L876.971 263.621C877.022 263.746 877.022 263.871 876.996 263.996L876.437 266.148C876.412 266.298 876.463 266.448 876.564 266.523L878.164 267.749C878.316 267.849 878.52 267.849 878.646 267.724L880.322 266.273C880.423 266.198 880.55 266.148 880.652 266.123L882.556 265.922C882.683 265.897 882.734 265.723 882.607 265.647L876.539 261.794Z" fill="#8257E6"/>
<path d="M875.981 267.349C875.879 267.274 875.727 267.249 875.6 267.3L874.254 267.95C874.178 267.975 874.127 268.05 874.076 268.125L871.208 275.106C871.208 275.131 871.208 275.131 871.208 275.156C871.232 275.181 871.258 275.206 871.309 275.206L871.969 274.956C871.994 274.956 872.02 274.956 872.045 274.956C872.071 274.981 872.096 275.031 872.071 275.056L870.014 278.384C869.963 278.459 870.065 278.534 870.115 278.459L877.555 271.103C877.631 271.028 877.656 270.953 877.681 270.852L877.834 268.951C877.834 268.825 877.783 268.726 877.707 268.651L875.981 267.349Z" fill="#8257E6"/>
<g clip-path="url(#clip1_1016_372)">
<path d="M781.63 152.118C781.63 149.932 782.383 148.125 783.933 146.697C785.483 145.268 787.609 144.554 790.267 144.554C792.88 144.554 795.006 145.268 796.556 146.697C798.106 148.125 798.903 149.932 798.903 152.118C798.903 154.345 798.106 156.151 796.512 157.58C794.917 159.009 792.835 159.723 790.222 159.723C787.609 159.723 785.528 159.009 783.933 157.58C782.427 156.193 781.63 154.345 781.63 152.118ZM798.017 221.073H782.56V166.278H798.017V221.073Z" fill="white"/>
<path d="M806.828 193.291C806.828 184.887 808.954 178.122 813.161 172.995C817.369 167.869 823.038 165.305 830.213 165.305C836.547 165.305 841.463 167.365 845.006 171.483L845.626 166.314H859.622V219.26C859.622 224.05 858.47 228.21 856.167 231.782C853.864 235.312 850.631 238.043 846.468 239.892C842.304 241.741 837.432 242.665 831.852 242.665C827.6 242.665 823.481 241.867 819.495 240.27C815.465 238.673 812.453 236.614 810.371 234.051L817.192 225.143C821.045 229.219 825.696 231.278 831.188 231.278C835.262 231.278 838.451 230.227 840.754 228.168C843.013 226.109 844.165 223.168 844.165 219.344V216.402C840.621 220.226 835.927 222.117 830.125 222.117C823.171 222.117 817.59 219.554 813.294 214.385C808.998 209.259 806.872 202.409 806.872 193.921V193.291H806.828ZM822.241 194.342C822.241 199.3 823.304 203.208 825.386 206.023C827.467 208.839 830.346 210.267 834.022 210.267C838.717 210.267 842.083 208.587 844.12 205.267V182.198C842.039 178.836 838.717 177.197 834.155 177.197C830.435 177.197 827.556 178.626 825.43 181.525C823.304 184.341 822.241 188.669 822.241 194.342Z" fill="white"/>
<path d="M883.982 166.272L884.47 172.617C888.589 167.743 894.122 165.264 901.078 165.264C907.189 165.264 911.75 166.987 914.718 170.39C917.686 173.794 919.236 178.879 919.325 185.686V221.067H903.911V186.022C903.911 182.912 903.202 180.685 901.787 179.257C900.369 177.87 897.978 177.155 894.7 177.155C890.36 177.155 887.124 178.92 884.954 182.408V221.025H869.542V166.272H883.982Z" fill="white"/>
<path d="M929.245 152.109C929.245 149.924 930 148.117 931.55 146.689C933.1 145.26 935.224 144.546 937.882 144.546C940.494 144.546 942.621 145.26 944.171 146.689C945.721 148.117 946.519 149.924 946.519 152.109C946.519 154.336 945.721 156.143 944.128 157.572C942.532 159.001 940.451 159.715 937.839 159.715C935.224 159.715 933.143 159.001 931.55 157.572C930.043 156.185 929.245 154.336 929.245 152.109ZM945.632 221.065H930.175V166.27H945.632V221.065Z" fill="white"/>
<path d="M975.182 152.824V166.271H985.056V176.986H975.182V204.341C975.182 206.358 975.578 207.829 976.422 208.711C977.217 209.594 978.813 210.014 981.115 210.014C982.843 210.014 984.35 209.888 985.633 209.678V220.771C982.622 221.653 979.476 222.074 976.287 222.074C965.48 222.074 959.946 216.905 959.768 206.526V177.028H951.352V166.313H959.768V152.866H975.182V152.824Z" fill="white"/>
<path d="M1018.54 222.075C1010.08 222.075 1003.17 219.596 997.854 214.68C992.537 209.763 989.879 203.208 989.879 194.972V193.543C989.879 188.039 990.987 183.123 993.247 178.794C995.506 174.466 998.652 171.105 1002.77 168.752C1006.89 166.398 1011.58 165.222 1016.81 165.222C1024.69 165.222 1030.94 167.575 1035.46 172.323C1039.97 177.03 1042.28 183.753 1042.28 192.409V198.376H1005.51C1006 201.948 1007.51 204.805 1010.03 206.99C1012.56 209.133 1015.7 210.226 1019.55 210.226C1025.49 210.226 1030.14 208.167 1033.46 204.091L1041.04 212.159C1038.73 215.268 1035.59 217.705 1031.65 219.428C1027.75 221.193 1023.36 222.075 1018.54 222.075ZM1016.81 177.072C1013.75 177.072 1011.27 178.038 1009.37 180.013C1007.46 181.988 1006.27 184.803 1005.69 188.459H1027.13V187.282C1027.04 184.047 1026.16 181.526 1024.34 179.719C1022.57 177.954 1020.04 177.072 1016.81 177.072Z" fill="white"/>
<path opacity="0.5" d="M701.868 119.031L662.499 258.497C662.299 259.13 661.498 259.32 661.031 258.877L634.674 233.87L654.425 163.979C654.625 163.346 654.025 162.776 653.357 162.966L579.691 181.705L553.467 156.825C553 156.382 553.2 155.622 553.867 155.432L700.8 118.018C701.468 117.891 702.068 118.461 701.868 119.031Z" fill="#00B37E"/>
<path opacity="0.5" d="M634.672 233.87L624.53 269.955C624.33 270.588 623.529 270.778 623.062 270.335L541.255 192.783C540.787 192.34 540.988 191.58 541.655 191.391L579.689 181.705L634.672 233.87Z" fill="#00B37E"/>
<path d="M654.42 163.979L634.669 233.87L579.686 181.705L653.352 162.966C654.02 162.776 654.62 163.346 654.42 163.979Z" fill="#00B37E"/>
</g>
</g>
<defs>
<clipPath id="clip0_1016_372">
<rect width="1584" height="396" fill="white"/>
</clipPath>
<clipPath id="clip1_1016_372">
<rect width="501.277" height="155" fill="white" transform="translate(541 118)"/>
</clipPath>
</defs>
</svg>
