<svg width="1584" height="396" viewBox="0 0 1584 396" fill="none" xmlns="http://www.w3.org/2000/svg">
<g clip-path="url(#clip0_1018_893)">
<path d="M1584 0H0V396H1584V0Z" fill="#121214"/>
<circle cx="1582.5" cy="197.5" r="709.5" fill="#161618"/>
<circle cx="1582.5" cy="197.5" r="509.072" fill="#18181B"/>
<circle cx="1582.5" cy="197.5" r="220.219" fill="#1B1B1E"/>
<path opacity="0.5" d="M1089.29 129.534L1068.91 201.746C1068.81 202.073 1068.39 202.172 1068.15 201.942L1054.5 188.995L1064.73 152.807C1064.83 152.479 1064.52 152.184 1064.18 152.282L1026.03 161.985L1012.46 149.103C1012.21 148.873 1012.32 148.48 1012.66 148.382L1088.74 129.009C1089.09 128.944 1089.4 129.239 1089.29 129.534Z" fill="#00B37E"/>
<path opacity="0.5" d="M1054.5 188.994L1049.25 207.678C1049.15 208.006 1048.73 208.104 1048.49 207.875L1006.13 167.721C1005.89 167.491 1005.99 167.098 1006.34 167L1026.03 161.985L1054.5 188.994Z" fill="#00B37E"/>
<path d="M1064.73 152.806L1054.5 188.994L1026.03 161.985L1064.17 152.282C1064.52 152.184 1064.83 152.479 1064.73 152.806Z" fill="#00B37E"/>
<path d="M573.565 184.57C565.841 184.57 559.551 190.824 559.551 198.503C559.551 206.183 565.841 212.437 573.565 212.437C581.289 212.437 587.579 206.183 587.579 198.503C587.579 190.824 581.289 184.57 573.565 184.57ZM534.332 226.195L531.238 225.433C508.219 219.633 495 209.82 495 198.479C495 187.138 508.224 177.325 531.238 171.525L534.332 170.763L535.201 173.815C537.536 181.807 540.522 189.597 544.128 197.107L544.791 198.479L544.128 199.875C540.514 207.383 537.528 215.173 535.201 223.168L534.332 226.195ZM529.809 178.643C512.314 183.525 501.575 191.024 501.575 198.479C501.575 205.934 512.319 213.403 529.809 218.315C531.953 211.542 534.542 204.915 537.558 198.479C534.538 192.044 531.949 185.418 529.809 178.643V178.643ZM612.799 226.195L611.93 223.143C609.598 215.158 606.613 207.376 603.003 199.875L602.34 198.479L603.003 197.083C606.616 189.575 609.602 181.785 611.93 173.79L612.799 170.763L615.892 171.525C638.912 177.325 652.13 187.138 652.13 198.479C652.13 209.82 638.907 219.633 615.892 225.433L612.799 226.195ZM609.573 198.479C612.599 204.911 615.187 211.538 617.321 218.315C634.841 213.408 645.556 205.934 645.556 198.479C645.556 191.024 634.812 183.554 617.321 178.643C615.172 185.414 612.584 192.04 609.573 198.479ZM529.755 178.619L528.886 175.567C522.414 152.885 524.383 136.613 534.283 130.94C544 125.369 559.576 131.955 575.917 148.638L578.142 150.903L575.917 153.168C570.114 159.171 564.811 165.634 560.062 172.491L559.168 173.736L557.631 173.863C549.276 174.519 540.988 175.846 532.849 177.833L529.755 178.619ZM542.183 135.471C540.421 135.471 538.859 135.827 537.553 136.589C531.057 140.328 529.908 153.295 534.381 170.788C541.361 169.235 548.435 168.139 555.559 167.507C559.66 161.699 564.145 156.168 568.984 150.952C558.78 141.061 549.112 135.466 542.183 135.466V135.471ZM604.972 267.995C604.947 267.995 604.947 267.995 604.972 267.995C595.637 267.995 583.641 261.028 571.213 248.315L568.989 246.05L571.213 243.785C577.016 237.782 582.319 231.319 587.069 224.461L587.938 223.217L589.475 223.065C597.84 222.431 606.138 221.104 614.282 219.096L617.375 218.334L618.244 221.386C624.716 244.068 622.747 260.316 612.848 265.984C610.454 267.351 607.732 268.045 604.972 267.99V267.995ZM578.142 246.001C588.345 255.892 598.014 261.487 604.942 261.487H604.967C606.705 261.487 608.266 261.106 609.573 260.369C616.069 256.63 617.247 243.663 612.745 226.17C605.766 227.724 598.691 228.812 591.566 229.427C587.465 235.242 582.981 240.781 578.142 246.006V246.001ZM617.375 178.619L614.282 177.833C606.132 175.853 597.837 174.526 589.475 173.863L587.938 173.736L587.069 172.491C582.319 165.634 577.016 159.171 571.213 153.168L568.989 150.903L571.213 148.638C587.555 131.955 603.13 125.369 612.848 130.94C622.747 136.608 624.716 152.885 618.244 175.567L617.375 178.619ZM591.571 167.507C598.695 168.138 605.77 169.234 612.75 170.788C617.252 153.295 616.074 140.323 609.578 136.589C603.106 132.878 590.933 138.571 578.147 150.957C582.972 156.185 587.456 161.714 591.571 167.512V167.507ZM542.183 267.995C539.419 268.044 536.684 267.36 534.283 265.989C524.383 260.32 522.414 244.068 528.886 221.391L529.755 218.339L532.849 219.101C540.421 221.01 548.758 222.328 557.631 223.07L559.168 223.221L560.037 224.466C564.787 231.324 570.089 237.787 575.893 243.79L578.117 246.055L575.893 248.32C563.489 261.033 551.493 268 542.183 268V267.995ZM534.386 226.17C529.883 243.663 531.061 256.634 537.558 260.369C544.03 264.031 556.178 258.387 568.989 246.001C564.15 240.776 559.665 235.237 555.564 229.422C548.439 228.809 541.364 227.721 534.386 226.165V226.17ZM573.565 230.261C568.169 230.261 562.645 230.032 557.096 229.573L555.559 229.446L554.665 228.177C551.531 223.699 548.587 219.093 545.842 214.37C543.09 209.647 540.539 204.811 538.196 199.875L537.533 198.479L538.196 197.083C542.891 187.213 548.399 177.747 554.665 168.781L555.559 167.512L557.096 167.385C568.056 166.467 579.074 166.467 590.034 167.385L591.571 167.512L592.465 168.781C598.739 177.742 604.248 187.208 608.934 197.083L609.597 198.479L608.934 199.875C604.258 209.754 598.748 219.222 592.465 228.177L591.571 229.446L590.034 229.573C584.557 230.029 579.062 230.258 573.565 230.261V230.261ZM559.193 223.192C568.861 223.929 578.269 223.929 587.962 223.192C593.368 215.322 598.172 207.059 602.335 198.474C598.19 189.875 593.376 181.61 587.938 173.756C578.37 173.019 568.76 173.019 559.193 173.756C553.75 181.608 548.936 189.873 544.796 198.474C548.959 207.063 553.772 215.326 559.193 223.192V223.192Z" fill="#5ED3F3"/>
<path d="M710.92 164H730.48C737.28 164 742.24 165.6 745.36 168.8C748.48 171.92 750.04 176.76 750.04 183.32V188.48C750.04 197.2 747.16 202.72 741.4 205.04V205.28C744.6 206.24 746.84 208.2 748.12 211.16C749.48 214.12 750.16 218.08 750.16 223.04V237.8C750.16 240.2 750.24 242.16 750.4 243.68C750.56 245.12 750.96 246.56 751.6 248H738.16C737.68 246.64 737.36 245.36 737.2 244.16C737.04 242.96 736.96 240.8 736.96 237.68V222.32C736.96 218.48 736.32 215.8 735.04 214.28C733.84 212.76 731.72 212 728.68 212H724.12V248H710.92V164ZM728.92 200C731.56 200 733.52 199.32 734.8 197.96C736.16 196.6 736.84 194.32 736.84 191.12V184.64C736.84 181.6 736.28 179.4 735.16 178.04C734.12 176.68 732.44 176 730.12 176H724.12V200H728.92ZM759.318 164H795.318V176H772.518V198.2H790.638V210.2H772.518V236H795.318V248H759.318V164ZM813.112 164H830.992L844.672 248H831.472L829.072 231.32V231.56H814.072L811.672 248H799.432L813.112 164ZM827.512 220.16L821.632 178.64H821.392L815.632 220.16H827.512ZM869.442 249.2C863.122 249.2 858.282 247.4 854.922 243.8C851.642 240.2 850.002 235.12 850.002 228.56V183.44C850.002 176.88 851.642 171.8 854.922 168.2C858.282 164.6 863.122 162.8 869.442 162.8C875.762 162.8 880.562 164.6 883.842 168.2C887.202 171.8 888.882 176.88 888.882 183.44V192.32H876.402V182.6C876.402 177.4 874.202 174.8 869.802 174.8C865.402 174.8 863.202 177.4 863.202 182.6V229.52C863.202 234.64 865.402 237.2 869.802 237.2C874.202 237.2 876.402 234.64 876.402 229.52V216.68H888.882V228.56C888.882 235.12 887.202 240.2 883.842 243.8C880.562 247.4 875.762 249.2 869.442 249.2ZM907.099 176H893.299V164H934.099V176H920.299V248H907.099V176ZM937.517 248.48C935.117 248.48 933.077 248.32 931.397 248V236C932.677 236.32 934.117 236.48 935.717 236.48C938.357 236.48 940.317 235.84 941.597 234.56C942.877 233.2 943.517 231.16 943.517 228.44V164H956.717V228.08C956.717 234.96 955.117 240.08 951.917 243.44C948.797 246.8 943.997 248.48 937.517 248.48ZM983.314 249.2C976.914 249.2 972.074 247.4 968.794 243.8C965.514 240.12 963.874 234.88 963.874 228.08V223.28H976.354V229.04C976.354 234.48 978.634 237.2 983.194 237.2C985.434 237.2 987.114 236.56 988.234 235.28C989.434 233.92 990.034 231.76 990.034 228.8C990.034 225.28 989.234 222.2 987.634 219.56C986.034 216.84 983.074 213.6 978.754 209.84C973.314 205.04 969.514 200.72 967.354 196.88C965.194 192.96 964.114 188.56 964.114 183.68C964.114 177.04 965.794 171.92 969.154 168.32C972.514 164.64 977.394 162.8 983.794 162.8C990.114 162.8 994.874 164.64 998.074 168.32C1001.35 171.92 1002.99 177.12 1002.99 183.92V187.4H990.514V183.08C990.514 180.2 989.954 178.12 988.834 176.84C987.714 175.48 986.074 174.8 983.914 174.8C979.514 174.8 977.314 177.48 977.314 182.84C977.314 185.88 978.114 188.72 979.714 191.36C981.394 194 984.394 197.2 988.714 200.96C994.234 205.76 998.034 210.12 1000.11 214.04C1002.19 217.96 1003.23 222.56 1003.23 227.84C1003.23 234.72 1001.51 240 998.074 243.68C994.714 247.36 989.794 249.2 983.314 249.2Z" fill="white"/>
</g>
<defs>
<clipPath id="clip0_1018_893">
<rect width="1584" height="396" fill="white"/>
</clipPath>
</defs>
</svg>
