<svg width="532" height="532" viewBox="0 0 532 532" fill="none" xmlns="http://www.w3.org/2000/svg">
<rect width="532" height="532" rx="50" fill="#2AC7E3"/>
<path d="M266 230.28C246.338 230.28 230.325 246.292 230.325 265.955C230.325 285.617 246.338 301.63 266 301.63C285.662 301.63 301.675 285.617 301.675 265.955C301.675 246.292 285.662 230.28 266 230.28ZM166.125 336.855L158.25 334.905C99.65 320.055 66 294.93 66 265.892C66 236.855 99.6625 211.73 158.25 196.88L166.125 194.93L168.338 202.742C174.282 223.205 181.882 243.15 191.063 262.38L192.75 265.892L191.063 269.467C181.863 288.689 174.262 308.635 168.338 329.105L166.125 336.855ZM154.613 215.105C110.075 227.605 82.7375 246.805 82.7375 265.892C82.7375 284.98 110.088 304.105 154.613 316.68C160.071 299.338 166.66 282.372 174.337 265.892C166.649 249.417 160.06 232.45 154.613 215.105V215.105ZM365.875 336.855L363.662 329.042C357.728 308.596 350.128 288.671 340.938 269.467L339.25 265.892L340.938 262.317C350.137 243.095 357.738 223.149 363.662 202.68L365.875 194.93L373.75 196.88C432.35 211.73 466 236.855 466 265.892C466 294.93 432.338 320.055 373.75 334.905L365.875 336.855ZM357.663 265.892C365.366 282.361 371.956 299.328 377.387 316.68C421.987 304.117 449.262 284.98 449.262 265.892C449.262 246.805 421.912 227.68 377.387 215.105C371.917 232.442 365.328 249.407 357.663 265.892ZM154.475 215.042L152.263 207.23C135.788 149.155 140.8 107.492 166 92.967C190.737 78.7045 230.388 95.567 271.988 138.28L277.65 144.08L271.988 149.88C257.214 165.25 243.716 181.796 231.625 199.355L229.35 202.542L225.438 202.867C204.168 204.546 183.07 207.944 162.35 213.03L154.475 215.042ZM186.113 104.567C181.625 104.567 177.65 105.48 174.325 107.43C157.788 117.005 154.863 150.205 166.25 194.992C184.018 191.017 202.027 188.211 220.163 186.592C230.603 171.722 242.02 157.562 254.338 144.205C228.363 118.88 203.75 104.555 186.113 104.555V104.567ZM345.95 443.88C345.887 443.88 345.887 443.88 345.95 443.88C322.187 443.88 291.65 426.042 260.012 393.492L254.35 387.692L260.012 381.892C274.786 366.522 288.284 349.976 300.375 332.417L302.588 329.23L306.5 328.842C327.796 327.22 348.92 323.82 369.65 318.68L377.525 316.73L379.738 324.542C396.213 382.617 391.2 424.217 366 438.73C359.907 442.231 352.976 444.007 345.95 443.867V443.88ZM277.65 387.567C303.625 412.892 328.237 427.217 345.875 427.217H345.938C350.363 427.217 354.338 426.242 357.663 424.355C374.2 414.78 377.2 381.58 365.738 336.792C347.973 340.771 329.962 343.556 311.825 345.13C301.385 360.02 289.968 374.201 277.65 387.58V387.567ZM377.525 215.042L369.65 213.03C348.905 207.961 327.788 204.563 306.5 202.867L302.588 202.542L300.375 199.355C288.284 181.796 274.786 165.25 260.012 149.88L254.35 144.08L260.012 138.28C301.612 95.567 341.263 78.7045 366 92.967C391.2 107.48 396.213 149.155 379.738 207.23L377.525 215.042ZM311.837 186.592C329.973 188.207 347.983 191.013 365.75 194.992C377.212 150.205 374.212 116.992 357.675 107.43C341.2 97.9295 310.213 112.505 277.663 144.217C289.947 157.603 301.362 171.761 311.837 186.605V186.592ZM186.113 443.88C179.075 444.005 172.112 442.255 166 438.742C140.8 424.23 135.788 382.617 152.263 324.555L154.475 316.742L162.35 318.692C181.625 323.58 202.85 326.955 225.438 328.855L229.35 329.242L231.562 332.43C243.653 349.988 257.152 366.534 271.925 381.905L277.588 387.705L271.925 393.505C240.35 426.055 209.813 443.892 186.113 443.892V443.88ZM166.262 336.792C154.8 381.58 157.8 414.792 174.337 424.355C190.812 433.73 221.737 419.28 254.35 387.567C242.032 374.189 230.615 360.007 220.175 345.117C202.038 343.548 184.026 340.763 166.262 336.78V336.792ZM266 347.267C252.263 347.267 238.2 346.68 224.075 345.505L220.163 345.18L217.888 341.93C209.909 330.466 202.415 318.672 195.425 306.58C188.421 294.487 181.927 282.105 175.962 269.467L174.275 265.892L175.962 262.317C187.913 237.047 201.936 212.81 217.888 189.855L220.163 186.605L224.075 186.28C251.976 183.93 280.024 183.93 307.925 186.28L311.837 186.605L314.113 189.855C330.085 212.797 344.109 237.035 356.037 262.317L357.725 265.892L356.037 269.467C344.133 294.761 330.108 319.002 314.113 341.93L311.837 345.18L307.925 345.505C293.98 346.671 279.993 347.259 266 347.267V347.267ZM229.412 329.167C254.025 331.055 277.975 331.055 302.65 329.167C316.411 309.016 328.642 287.861 339.237 265.88C328.686 243.862 316.432 222.702 302.588 202.592C278.232 200.705 253.768 200.705 229.412 202.592C215.558 222.696 203.303 243.857 192.762 265.88C203.362 287.872 215.613 309.028 229.412 329.167V329.167Z" fill="white"/>
</svg>
